<mxfile host="app.diagrams.net" modified="2023-08-25T17:02:05.381Z" agent="Mozilla/5.0 (Windows NT 10.0; Win64; x64) AppleWebKit/537.36 (KHTML, like Gecko) Chrome/116.0.0.0 Safari/537.36" etag="WyJaV3wU2IkGJsfWXFim" version="21.6.9" type="device">
  <diagram name="Página-1" id="X92YqKIS_dOXxgpnwB4R">
    <mxGraphModel dx="583" dy="319" grid="1" gridSize="10" guides="1" tooltips="1" connect="1" arrows="1" fold="1" page="1" pageScale="1" pageWidth="827" pageHeight="1169" math="0" shadow="0">
      <root>
        <mxCell id="0" />
        <mxCell id="1" parent="0" />
        <mxCell id="P0syrHgjYsj1XWYfgDxt-15" value="Classname" style="swimlane;fontStyle=1;align=center;verticalAlign=top;childLayout=stackLayout;horizontal=1;startSize=26;horizontalStack=0;resizeParent=1;resizeParentMax=0;resizeLast=0;collapsible=1;marginBottom=0;whiteSpace=wrap;html=1;fillColor=#fff2cc;strokeColor=#d6b656;" vertex="1" parent="1">
          <mxGeometry x="234" y="200" width="360" height="312" as="geometry" />
        </mxCell>
        <mxCell id="P0syrHgjYsj1XWYfgDxt-16" value="+ cor: string&lt;br&gt;+ nome: string&lt;br&gt;+ idade: int&lt;br&gt;+ raça: string&lt;br&gt;+ genenero:&lt;br&gt;+ olho: string&lt;br&gt;+ doméstico: string&amp;nbsp;&lt;br&gt;+ carinhoso: string&lt;br&gt;+ peso: decimal" style="text;strokeColor=#9673a6;fillColor=#e1d5e7;align=left;verticalAlign=top;spacingLeft=4;spacingRight=4;overflow=hidden;rotatable=0;points=[[0,0.5],[1,0.5]];portConstraint=eastwest;whiteSpace=wrap;html=1;" vertex="1" parent="P0syrHgjYsj1XWYfgDxt-15">
          <mxGeometry y="26" width="360" height="134" as="geometry" />
        </mxCell>
        <mxCell id="P0syrHgjYsj1XWYfgDxt-17" value="" style="line;strokeWidth=1;fillColor=none;align=left;verticalAlign=middle;spacingTop=-1;spacingLeft=3;spacingRight=3;rotatable=0;labelPosition=right;points=[];portConstraint=eastwest;strokeColor=inherit;" vertex="1" parent="P0syrHgjYsj1XWYfgDxt-15">
          <mxGeometry y="160" width="360" height="8" as="geometry" />
        </mxCell>
        <mxCell id="P0syrHgjYsj1XWYfgDxt-18" value="+ miar(): void&lt;br&gt;+ dormir(): void&amp;nbsp;&lt;br&gt;+correr(): void&amp;nbsp;&lt;br&gt;+ arranhar(): void&amp;nbsp;&lt;br&gt;+ beber(): void&lt;br&gt;+ pular():void&amp;nbsp;&lt;br&gt;+ morder(): void" style="text;strokeColor=#A50040;fillColor=#d80073;align=left;verticalAlign=top;spacingLeft=4;spacingRight=4;overflow=hidden;rotatable=0;points=[[0,0.5],[1,0.5]];portConstraint=eastwest;whiteSpace=wrap;html=1;fontColor=#ffffff;" vertex="1" parent="P0syrHgjYsj1XWYfgDxt-15">
          <mxGeometry y="168" width="360" height="144" as="geometry" />
        </mxCell>
      </root>
    </mxGraphModel>
  </diagram>
</mxfile>
